<svg version="1.1" id="Layer_1" xmlns="http://www.w3.org/2000/svg" xmlns:xlink="http://www.w3.org/1999/xlink" x="0px" y="0px" width="16px" height="16px" viewBox="0 0 16 16" enable-background="new 0 0 16 16" xml:space="preserve">
  <g id="icon">
    <path d="M15.559,16H0.441C0.198,16,0,15.802,0,15.559V0.441C0,0.198,0.198,0,0.441,0h15.117c0.244,0,0.441,0.198,0.441,0.441v15.117C16,15.802,15.802,16,15.559,16z" fill="#D1D3D4"/>
    <path d="M1,12.472l4.174,-4.667c0.134,-0.163,0.41,-0.162,0.544,0.001L7.29,9.711l-1.897,2.204l0.241,0.305l4.853,-5.665c0.134,-0.162,0.404,-0.162,0.538,0l3.908,4.709c0.043,0.052,0.067,0.116,0.067,0.181v3.533H1V12.472z" fill="#217346"/>
    <path d="M8.877,4.228c0,-0.91,-0.73,-1.648,-1.631,-1.648c-0.238,0,-0.464,0.052,-0.668,0.145c-0.284,-0.678,-0.928,-1.151,-1.676,-1.151c-0.926,0,-1.691,0.723,-1.814,1.662c-0.566,0.174,-0.976,0.686,-0.976,1.291c0,1.208,1.165,1.324,1.938,1.327c0.016,0.007,0.032,0.009,0.05,0.009h3.305c0.019,0,0.056,-0.002,0.103,-0.01C8.371,5.821,8.877,5.118,8.877,4.228z" fill-rule="evenodd" fill="#217346"/>
    <path d="M15.467,2.689v0.292c-0.279,0,-0.505,0.05,-0.679,0.15c-0.174,0.1,-0.339,0.287,-0.497,0.56c-0.105,0.184,-0.271,0.623,-0.497,1.318l-2.983,8.625h-0.316L8.057,6.792l-2.422,6.841h-0.284l-3.18,-8.885c-0.237,-0.663,-0.387,-1.055,-0.45,-1.176c-0.105,-0.2,-0.249,-0.348,-0.43,-0.446c-0.181,-0.097,-0.427,-0.146,-0.738,-0.146v-0.292h3.961v0.292h-0.189c-0.279,0,-0.492,0.063,-0.639,0.189c-0.147,0.126,-0.221,0.279,-0.221,0.458c0,0.184,0.116,0.608,0.347,1.27l2.107,6.005l1.775,-5.105l-0.316,-0.9l-0.253,-0.718c-0.11,-0.263,-0.234,-0.494,-0.371,-0.694c-0.068,-0.1,-0.153,-0.184,-0.253,-0.252c-0.132,-0.095,-0.263,-0.163,-0.395,-0.205c-0.1,-0.032,-0.258,-0.047,-0.473,-0.047v-0.292h4.166v0.292h-0.284c-0.295,0,-0.51,0.063,-0.647,0.189c-0.137,0.126,-0.205,0.297,-0.205,0.513c0,0.268,0.118,0.737,0.355,1.405l2.052,5.816l2.036,-5.894c0.231,-0.652,0.347,-1.105,0.347,-1.357c0,-0.121,-0.038,-0.234,-0.114,-0.339c-0.076,-0.105,-0.172,-0.179,-0.288,-0.221c-0.2,-0.074,-0.46,-0.11,-0.781,-0.11v-0.292H15.467z" fill="#FFFFFF" opacity="0.81"/>
  </g>
</svg>