<svg version="1.1" id="Layer_1" xmlns="http://www.w3.org/2000/svg" xmlns:xlink="http://www.w3.org/1999/xlink" x="0px" y="0px" width="32px" height="32px" viewBox="0 0 32 32" enable-background="new 0 0 32 32" xml:space="preserve">
  <g id="icon">
    <path d="M30.172,31H1.828c-0.457,0,-0.828,-0.371,-0.828,-0.828V1.828c0,-0.457,0.371,-0.828,0.828,-0.828h28.345c0.457,0,0.828,0.371,0.828,0.828v28.345C31,30.629,30.629,31,30.172,31z" fill="#D1D3D4"/>
    <path d="M2,24.91l8.348,-9.334c0.269,-0.326,0.82,-0.325,1.088,0.002l3.145,3.809l-3.794,4.409l0.481,0.61l9.706,-11.329c0.268,-0.323,0.808,-0.323,1.077,0l7.815,9.417c0.087,0.104,0.134,0.231,0.134,0.361v7.066H2V24.91z" fill="#217346"/>
    <path d="M17.753,8.421c0,-1.82,-1.46,-3.296,-3.262,-3.296c-0.476,0,-0.928,0.104,-1.335,0.289C12.587,4.059,11.3,3.113,9.803,3.113c-1.852,0,-3.382,1.446,-3.628,3.324c-1.131,0.347,-1.951,1.371,-1.951,2.581c0,2.415,2.329,2.649,3.875,2.655c0.031,0.014,0.065,0.018,0.1,0.018h6.609c0.037,0,0.112,-0.004,0.206,-0.021C16.742,11.608,17.753,10.201,17.753,8.421z" fill-rule="evenodd" fill="#217346"/>
    <path d="M30,6.041v0.547c-0.523,0,-0.947,0.094,-1.272,0.281c-0.325,0.188,-0.636,0.538,-0.932,1.05c-0.197,0.345,-0.508,1.169,-0.932,2.471l-5.593,16.171h-0.592l-4.572,-12.827l-4.542,12.827h-0.533L5.07,9.903c-0.444,-1.243,-0.725,-1.977,-0.843,-2.204c-0.197,-0.375,-0.466,-0.653,-0.806,-0.836c-0.34,-0.182,-0.801,-0.274,-1.383,-0.274v-0.547h7.427v0.547h-0.355c-0.523,0,-0.922,0.118,-1.198,0.355c-0.276,0.237,-0.414,0.523,-0.414,0.858c0,0.345,0.217,1.139,0.651,2.382l3.95,11.259l3.329,-9.572l-0.592,-1.687l-0.473,-1.346c-0.207,-0.493,-0.439,-0.927,-0.695,-1.302c-0.128,-0.187,-0.286,-0.345,-0.473,-0.473c-0.247,-0.178,-0.493,-0.306,-0.74,-0.385c-0.188,-0.059,-0.483,-0.089,-0.888,-0.089v-0.547h7.812v0.547h-0.533c-0.552,0,-0.957,0.118,-1.213,0.355c-0.257,0.237,-0.385,0.557,-0.385,0.962c0,0.503,0.222,1.381,0.666,2.634l3.847,10.904l3.817,-11.052c0.434,-1.223,0.651,-2.071,0.651,-2.545c0,-0.227,-0.072,-0.439,-0.215,-0.636c-0.143,-0.197,-0.323,-0.335,-0.54,-0.414c-0.375,-0.138,-0.863,-0.207,-1.465,-0.207v-0.547H30z" fill="#FFFFFF" opacity="0.81"/>
  </g>
</svg>
